{
  "accessors": [
    {
      "bufferView": 2,
      "componentType": 5126,
      "count": 60937,
      "max": [
        1.0723919868469238,
        -12.636098861694336,
        0.87495100498199463
      ],
      "min": [
        -0.88776999711990356,
        -14.589352607727051,
        -1.8235169649124146
      ],
      "type": "VEC3"
    },
    {
      "bufferView": 2,
      "byteOffset": 731244,
      "componentType": 5126,
      "count": 60937,
      "max": [
        0.99998319149017334,
        0.9999840259552002,
        0.99992328882217407
      ],
      "min": [
        -0.99999153614044189,
        -0.99993950128555298,
        -0.99998807907104492
      ],
      "type": "VEC3"
    },
    {
      "bufferView": 3,
      "componentType": 5126,
      "count": 60937,
      "max": [
        0.99999600648880005,
        0.99999833106994629,
        0.95968139171600342,
        1
      ],
      "min": [
        -0.99142712354660034,
        -0.96880418062210083,
        -0.97571378946304321,
        -1
      ],
      "type": "VEC4"
    },
    {
      "bufferView": 1,
      "componentType": 5126,
      "count": 60937,
      "max": [
        0.99523699283599854,
        0.9958760142326355
      ],
      "min": [
        0.004280999768525362,
        0.0015239999629557133
      ],
      "type": "VEC2"
    },
    {
      "bufferView": 0,
      "componentType": 5125,
      "count": 349440,
      "max": [
        60936
      ],
      "min": [
        0
      ],
      "type": "SCALAR"
    }
  ],
  "asset": {
    "extras": {
      "author": "moonsoon (https://sketchfab.com/moonsoon)",
      "license": "CC-BY-4.0 (http://creativecommons.org/licenses/by/4.0/)",
      "source": "https://sketchfab.com/models/ed58014072a64680b0fe5ce4cac6234c",
      "title": "Lemon"
    },
    "generator": "Sketchfab-3.18.6",
    "version": "2.0"
  },
  "bufferViews": [
    {
      "buffer": 0,
      "byteLength": 1397760,
      "byteOffset": 0,
      "name": "floatBufferViews",
      "target": 34963
    },
    {
      "buffer": 0,
      "byteLength": 487496,
      "byteOffset": 1397760,
      "byteStride": 8,
      "name": "floatBufferViews",
      "target": 34962
    },
    {
      "buffer": 0,
      "byteLength": 1462488,
      "byteOffset": 1885256,
      "byteStride": 12,
      "name": "floatBufferViews",
      "target": 34962
    },
    {
      "buffer": 0,
      "byteLength": 974992,
      "byteOffset": 3347744,
      "byteStride": 16,
      "name": "floatBufferViews",
      "target": 34962
    }
  ],
  "buffers": [
    {
      "byteLength": 4322736,
      "uri": "scene.bin"
    }
  ],
  "images": [
    {
      "uri": "textures/highpoly_baseColor.jpg"
    }
  ],
  "materials": [
    {
      "doubleSided": true,
      "emissiveFactor": [
        0,
        0,
        0
      ],
      "name": "highpoly",
      "pbrMetallicRoughness": {
        "baseColorFactor": [
          1,
          1,
          1,
          1
        ],
        "baseColorTexture": {
          "index": 0,
          "texCoord": 0
        },
        "metallicFactor": 0,
        "roughnessFactor": 0.59926629220000005
      }
    }
  ],
  "meshes": [
    {
      "primitives": [
        {
          "attributes": {
            "NORMAL": 1,
            "POSITION": 0,
            "TANGENT": 2,
            "TEXCOORD_0": 3
          },
          "indices": 4,
          "material": 0,
          "mode": 4
        }
      ]
    }
  ],
  "nodes": [
    {
      "children": [
        1
      ],
      "name": "RootNode (gltf orientation matrix)",
      "rotation": [
        -0.70710678118654746,
        -0,
        -0,
        0.70710678118654757
      ]
    },
    {
      "children": [
        2
      ],
      "matrix": [
        0.45425441861152649,
        0.8679843544960022,
        0.20063920319080353,
        0,
        0.87655347585678101,
        -0.47568714618682861,
        0.073319196701049805,
        0,
        0.15908141434192657,
        0.14256542921066284,
        -0.97691768407821655,
        0,
        12.058152198791504,
        -20.100702285766602,
        0.041931435465812683,
        1
      ],
      "name": "RootNode (model correction matrix)"
    },
    {
      "children": [
        3
      ],
      "name": "highpoly.obj.cleaner.materialmerger.gles"
    },
    {
      "mesh": 0,
      "name": ""
    }
  ],
  "samplers": [
    {
      "magFilter": 9729,
      "minFilter": 9987,
      "wrapS": 10497,
      "wrapT": 10497
    }
  ],
  "scene": 0,
  "scenes": [
    {
      "name": "OSG_Scene",
      "nodes": [
        0
      ]
    }
  ],
  "textures": [
    {
      "sampler": 0,
      "source": 0
    }
  ]
}

